# xmcd
# 
# Track frame offsets:
#     150
#     20250
#     33669
#     48358
#     67483
#     82514
#     112628
#     133173
#     147425
#     165827
#     190616
#     210004
#     225763
#     236738
#     252978
#     265108
#     289903
#     321934
#     334337
# 
# Disc length: 4678
# 
# Revision: 3
# Processed by: cddbd v1.5.2PL0 Copyright (c) Steve Scherf et al.
# Submitted via: fre:ac v1.0.31
# 
DISCID=fe124413
DTITLE=Justament - Kuuskümmend seitse CD2
DYEAR=2009
DGENRE=Country
TTITLE0=Murumängud Munamäel
TTITLE1=Karude elust
TTITLE2=Meie aja kangelane
TTITLE3=Emad ja pojad
TTITLE4=Geiser on kaugel
TTITLE5=Kivihing
TTITLE6=Kodutänavad
TTITLE7=Annie's song
TTITLE8=Talguteel
TTITLE9=Kogu elu on tee
TTITLE10=Kaua sa kannatad...
TTITLE11=Kui saabub hommik
TTITLE12=Lõbutüdruk
TTITLE13=Maa tuleb täita lastega
TTITLE14=Vangile ei meeldi trellid
TTITLE15=Ringmängu laul
TTITLE16="1861"
TTITLE17=Vladislavi marss
TTITLE18=Tõuse üles ja läheme ära
EXTD=Submitted by Dandee
EXTT0=
EXTT1=
EXTT2=
EXTT3=
EXTT4=
EXTT5=
EXTT6=
EXTT7=
EXTT8=
EXTT9=
EXTT10=
EXTT11=
EXTT12=
EXTT13=
EXTT14=
EXTT15=
EXTT16=
EXTT17=
EXTT18=
PLAYORDER=
